<?xml version="1.0" encoding="iso-8859-1"?>
<!-- Generator: Adobe Illustrator 19.0.0, SVG Export Plug-In . SVG Version: 6.00 Build 0)  -->
<svg version="1.1" id="Layer_1" xmlns="http://www.w3.org/2000/svg" xmlns:xlink="http://www.w3.org/1999/xlink" x="0px" y="0px"
	 viewBox="0 0 512.005 512.005" style="enable-background:new 0 0 512.005 512.005;" xml:space="preserve">
<g>
	<g>
		<path style="fill:#383838;" d="M99.902,413.87l156.1,33.937l156.1-33.937l-156.1-33.937L99.902,413.87z M256.003,465.07
			c-0.606,0-1.22-0.068-1.818-0.188L57.918,422.216c-3.917-0.862-6.716-4.326-6.716-8.346c0-4.019,2.799-7.484,6.716-8.346
			l196.267-42.667c1.203-0.247,2.432-0.247,3.635,0l196.267,42.667c3.917,0.862,6.716,4.326,6.716,8.346
			c0,4.019-2.799,7.484-6.716,8.346L257.82,464.883C257.223,465.002,256.608,465.07,256.003,465.07L256.003,465.07z"/>
		<path style="fill:#383838;" d="M256.003,379.737c-0.674,0-1.34-0.085-1.997-0.239L6.539,319.765
			c-4.582-1.101-7.407-5.717-6.298-10.291c1.109-4.582,5.794-7.415,10.291-6.298l245.47,59.255l245.47-59.255
			c4.531-1.118,9.19,1.715,10.291,6.298c1.109,4.574-1.715,9.19-6.298,10.291l-247.467,59.733
			C257.342,379.652,256.677,379.737,256.003,379.737"/>
	</g>
	<path style="fill:#494949;" d="M153.603,226.137c0,28.279-22.921,51.2-51.2,51.2s-51.2-22.921-51.2-51.2s22.921-51.2,51.2-51.2
		S153.603,197.858,153.603,226.137"/>
	<path style="fill:#A2A2A2;" d="M119.469,226.137c0,9.429-7.637,17.067-17.067,17.067s-17.067-7.637-17.067-17.067
		c0-9.429,7.637-17.067,17.067-17.067S119.469,216.708,119.469,226.137"/>
	<path style="fill:#494949;" d="M460.803,226.137c0,28.279-22.921,51.2-51.2,51.2c-28.279,0-51.2-22.921-51.2-51.2
		s22.921-51.2,51.2-51.2C437.882,174.937,460.803,197.858,460.803,226.137"/>
	<path style="fill:#A2A2A2;" d="M426.669,226.137c0,9.429-7.637,17.067-17.067,17.067s-17.067-7.637-17.067-17.067
		c0-9.429,7.637-17.067,17.067-17.067S426.669,216.708,426.669,226.137"/>
	<path style="fill:#E85A4B;" d="M385.623,76.238l-29.466-47.881c-9.207-14.967-25.532-24.09-43.102-24.09H139.24
		c-17.587,0-33.911,9.139-43.119,24.124L53.685,97.486c-6.767,11.008-18.773,17.715-31.693,17.715h-0.41
		c-7.287,0-13.09,5.811-13.082,12.996c0.017,18.85,0.034,53.999,0.034,76.663c0,11.785,9.549,21.274,21.325,21.274h21.342
		c0-28.271,22.921-51.2,51.2-51.2s51.2,22.929,51.2,51.2h204.8c0-28.271,22.921-51.2,51.2-51.2c28.279,0,51.2,22.929,51.2,51.2
		h16.708c14.336,0,25.958-11.622,25.958-25.958v-72.013c0-7.159-5.803-12.962-12.962-12.962h-35.149
		C426.924,115.201,400.522,100.455,385.623,76.238"/>
	<path style="fill:#E0E0E0;" d="M385.623,76.238l-23.279-37.837H135.067c-3.9,0-7.066,3.166-7.066,7.066v37.069
		c0,3.908,3.166,7.066,7.066,7.066h261.035C392.228,85.522,388.635,81.136,385.623,76.238"/>
	<path style="fill:#7C7B7A;" d="M247.469,89.604h17.067v-51.2h-17.067V89.604z"/>
	<g>
		<path style="fill:#8E382F;" d="M298.669,140.804h-42.667c-4.719,0-8.533-3.814-8.533-8.533c0-4.719,3.814-8.533,8.533-8.533
			h42.667c4.719,0,8.533,3.814,8.533,8.533C307.203,136.989,303.388,140.804,298.669,140.804"/>
		<path style="fill:#8E382F;" d="M298.669,157.87c-4.719,0-8.533-3.814-8.533-8.533V132.27c0-4.719,3.814-8.533,8.533-8.533
			c4.719,0,8.533,3.814,8.533,8.533v17.067C307.203,154.056,303.388,157.87,298.669,157.87"/>
	</g>
	<path style="fill:#383838;" d="M108.252,490.67h295.501l-147.755-25.472L108.252,490.67z M503.465,507.737H8.532
		c-4.429,0-8.124-3.388-8.499-7.808c-0.384-4.412,2.688-8.38,7.057-9.131l247.467-42.667c0.964-0.171,1.929-0.171,2.893,0
		l247.467,42.667c4.369,0.751,7.433,4.719,7.057,9.131C511.597,504.349,507.902,507.737,503.465,507.737L503.465,507.737z"/>
	<path style="fill:#7C7B7A;" d="M0.003,311.47h512v-34.133h-512V311.47z"/>
	<g>
		<path style="fill:#FEC24C;" d="M503.469,149.337h-34.133c-4.719,0-8.533,3.814-8.533,8.533s3.814,8.533,8.533,8.533h34.133
			V149.337z"/>
		<path style="fill:#FEC24C;" d="M42.669,149.337H8.519c0,5.478,0,11.196,0.009,17.067h34.142c4.719,0,8.533-3.814,8.533-8.533
			S47.388,149.337,42.669,149.337"/>
	</g>
</g>
<g>
</g>
<g>
</g>
<g>
</g>
<g>
</g>
<g>
</g>
<g>
</g>
<g>
</g>
<g>
</g>
<g>
</g>
<g>
</g>
<g>
</g>
<g>
</g>
<g>
</g>
<g>
</g>
<g>
</g>
</svg>
