<?xml version="1.0" encoding="iso-8859-1"?>
<!-- Generator: Adobe Illustrator 19.0.0, SVG Export Plug-In . SVG Version: 6.00 Build 0)  -->
<svg version="1.1" id="Layer_1" xmlns="http://www.w3.org/2000/svg" xmlns:xlink="http://www.w3.org/1999/xlink" x="0px" y="0px"
	 viewBox="0 0 512.001 512.001" style="enable-background:new 0 0 512.001 512.001;" xml:space="preserve">
<g>
	<path style="fill:#7F1B12;" d="M199.891,323.172l-45.262-13.641c-8.764-2.64-18.005,2.322-20.644,11.083
		c-2.641,8.761,2.322,18.005,11.082,20.644l45.262,13.641c1.594,0.48,3.204,0.709,4.787,0.709c7.119,0,13.697-4.625,15.857-11.792
		C213.613,335.055,208.651,325.812,199.891,323.172z"/>
	<path style="fill:#7F1B12;" d="M377.575,320.614c-2.641-8.761-11.883-13.722-20.644-11.083l-45.261,13.641
		c-8.761,2.641-13.723,11.884-11.082,20.644c2.161,7.168,8.738,11.792,15.857,11.792c1.583,0,3.194-0.229,4.787-0.709l45.261-13.641
		C375.254,338.619,380.216,329.376,377.575,320.614z"/>
</g>
<rect x="185.469" y="281.622" style="fill:#779DD2;" width="140.612" height="57.78"/>
<rect x="255.775" y="281.622" style="fill:#497FC1;" width="70.306" height="57.78"/>
<path style="fill:#9D2217;" d="M341.829,361.184H169.731c-5.014,0-9.757-2.27-12.902-6.173c-3.145-3.904-4.353-9.022-3.287-13.921
	l15.74-72.296c1.658-7.614,8.397-13.044,16.19-13.044h140.616c7.793,0,14.532,5.43,16.19,13.044l15.74,72.296
	c1.066,4.899-0.142,10.016-3.287,13.921C351.585,358.914,346.841,361.184,341.829,361.184z M190.296,328.047h130.969l-8.525-39.159
	H198.821L190.296,328.047z"/>
<path style="fill:#690812;" d="M358.022,341.09l-15.589-72.296c-1.642-7.614-8.316-13.044-16.034-13.044h-70.617v33.137h57.397
	l8.443,39.159h-65.84v33.137h86.207c4.965,0,9.663-2.27,12.779-6.173C357.88,351.107,359.078,345.988,358.022,341.09z"/>
<path style="fill:#7E4F1F;" d="M460.978,203.2c-9.15,0-16.569-7.418-16.569-16.569V62.585H67.591v124.048
	c0,9.15-7.418,16.569-16.569,16.569s-16.569-7.418-16.569-16.569V46.016c0-9.15,7.418-16.569,16.569-16.569h409.955
	c9.15,0,16.569,7.418,16.569,16.569v140.616C477.546,195.783,470.128,203.2,460.978,203.2z"/>
<path style="fill:#5E3C16;" d="M460.978,29.448H256.015v33.137h188.394v124.048c0,9.15,7.418,16.569,16.569,16.569
	s16.569-7.418,16.569-16.569V46.016C477.546,36.865,470.128,29.448,460.978,29.448z"/>
<g>
	<path style="fill:#2D2E30;" d="M205.148,397.416h-46.172c-9.15,0-16.569,7.418-16.569,16.569v35.679
		c0,17.526,14.259,31.784,31.784,31.784h15.74c17.526,0,31.784-14.258,31.784-31.784v-35.679
		C221.716,404.834,214.298,397.416,205.148,397.416z"/>
	<path style="fill:#2D2E30;" d="M352.584,397.416h-46.172c-9.15,0-16.569,7.418-16.569,16.569v35.679
		c0,17.526,14.259,31.784,31.784,31.784h15.74c17.526,0,31.784-14.258,31.784-31.784v-35.679
		C369.152,404.834,361.734,397.416,352.584,397.416z"/>
</g>
<path style="fill:#DE3205;" d="M342.436,328.047H169.123c-22.688,0-41.145,18.457-41.145,41.145v63.571
	c0,9.15,7.418,16.569,16.569,16.569h222.466c9.15,0,16.569-7.418,16.569-16.569v-63.571
	C383.581,346.504,365.124,328.047,342.436,328.047z"/>
<path style="fill:#EDA637;" d="M72.038,150.17h-42.03C13.461,150.17,0,163.631,0,180.178v272.368
	c0,16.545,13.461,30.008,30.008,30.008h42.031c16.545,0,30.008-13.462,30.008-30.008V180.178
	C102.046,163.631,88.584,150.17,72.038,150.17z"/>
<path style="fill:#C27526;" d="M481.993,150.17h-42.031c-16.547,0-30.008,13.463-30.008,30.008v272.368
	c0,16.545,13.461,30.008,30.008,30.008h42.031c16.545,0,30.008-13.462,30.008-30.008V180.178
	C512,163.631,498.539,150.17,481.993,150.17z"/>
<g>
	<path style="fill:#4AB6BF;" d="M256,82.855c-4.575,0-8.284,3.708-8.284,8.284v16.569c0,4.576,3.709,8.284,8.284,8.284
		c4.575,0,8.284-3.708,8.284-8.284V91.139C264.284,86.564,260.575,82.855,256,82.855z"/>
	<path style="fill:#4AB6BF;" d="M256,120.209c-4.575,0-8.284,3.708-8.284,8.284v20.785c0,4.576,3.709,8.284,8.284,8.284
		c4.575,0,8.284-3.708,8.284-8.284v-20.785C264.284,123.917,260.575,120.209,256,120.209z"/>
	<path style="fill:#4AB6BF;" d="M256,161.779c-4.575,0-8.284,3.708-8.284,8.284v16.569c0,4.576,3.709,8.284,8.284,8.284
		c4.575,0,8.284-3.708,8.284-8.284v-16.569C264.284,165.488,260.575,161.779,256,161.779z"/>
</g>
<g>
	<path style="fill:#67D1D3;" d="M233.727,83.068c-4.457-1.028-8.906,1.751-9.936,6.209l-3.726,16.144
		c-1.028,4.458,1.751,8.906,6.21,9.935c0.626,0.145,1.254,0.214,1.87,0.214c3.771,0,7.18-2.592,8.064-6.423l3.726-16.144
		C240.966,88.545,238.185,84.095,233.727,83.068z"/>
	<path style="fill:#67D1D3;" d="M225.14,120.28c-4.457-1.027-8.906,1.751-9.936,6.209l-4.862,21.068
		c-1.028,4.458,1.751,8.906,6.21,9.935c0.626,0.145,1.254,0.214,1.87,0.214c3.771,0,7.18-2.592,8.064-6.423l4.862-21.067
		C232.378,125.757,229.599,121.31,225.14,120.28z"/>
	<path style="fill:#67D1D3;" d="M215.416,162.417c-4.455-1.029-8.906,1.751-9.936,6.209l-3.726,16.143
		c-1.028,4.458,1.751,8.906,6.21,9.935c0.626,0.145,1.254,0.214,1.87,0.214c3.771,0,7.18-2.592,8.064-6.423l3.726-16.143
		C222.654,167.894,219.875,163.446,215.416,162.417z"/>
</g>
<g>
	<path style="fill:#38979E;" d="M285.723,115.356c4.458-1.028,7.238-5.476,6.21-9.935l-3.726-16.144
		c-1.028-4.459-5.483-7.239-9.935-6.209c-4.458,1.028-7.238,5.476-6.21,9.935l3.726,16.144c0.884,3.832,4.293,6.423,8.064,6.423
		C284.47,115.57,285.097,115.501,285.723,115.356z"/>
	<path style="fill:#38979E;" d="M295.449,157.492c4.458-1.029,7.238-5.476,6.21-9.935l-4.862-21.067
		c-1.029-4.458-5.479-7.238-9.936-6.209c-4.458,1.029-7.238,5.476-6.21,9.935l4.862,21.068c0.885,3.832,4.293,6.423,8.064,6.423
		C294.195,157.706,294.821,157.636,295.449,157.492z"/>
	<path style="fill:#38979E;" d="M310.245,184.769l-3.726-16.143c-1.029-4.458-5.479-7.239-9.936-6.209
		c-4.458,1.029-7.238,5.476-6.21,9.935l3.726,16.143c0.885,3.832,4.293,6.423,8.064,6.423c0.617,0,1.244-0.07,1.87-0.214
		C308.494,193.675,311.274,189.228,310.245,184.769z"/>
</g>
<path style="fill:#9D2217;" d="M342.36,328.047h-86.581v121.285h111.203c9.167,0,16.6-7.418,16.6-16.569v-63.571
	C383.581,346.504,365.09,328.047,342.36,328.047z"/>
<circle style="fill:#F7DC4D;" cx="170.402" cy="380.116" r="20.015"/>
<circle style="fill:#EDA637;" cx="341.158" cy="380.116" r="20.015"/>
<path style="fill:#444547;" d="M300.677,400.132h-89.795c-4.249,0-7.694-3.445-7.694-7.694v-21.943c0-4.249,3.445-7.694,7.694-7.694
	h89.795c4.249,0,7.694,3.445,7.694,7.694v21.943C308.372,396.687,304.927,400.132,300.677,400.132z"/>
<path style="fill:#1D1D1F;" d="M300.677,362.8h-44.898v37.262l44.898,0.071c4.249,0,7.694-3.445,7.694-7.694v-21.943
	C308.371,366.245,304.927,362.8,300.677,362.8z"/>
<path style="fill:#F7DC4D;" d="M51.022,150.17H30.008C13.461,150.17,0,163.631,0,180.178v272.368
	c0,16.545,13.461,30.008,30.008,30.008h21.016V150.17H51.022z"/>
<path style="fill:#EDA637;" d="M460.978,150.17h-21.016c-16.547,0-30.008,13.463-30.008,30.008v272.368
	c0,16.545,13.461,30.008,30.008,30.008h21.016V150.17z"/>
<path style="fill:#8A8A91;" d="M382.426,452.116h-255.28c-5.662,0-10.253-4.591-10.253-10.253v-10.765
	c0-5.662,4.591-10.253,10.253-10.253h255.28c5.662,0,10.253,4.591,10.253,10.253v10.765
	C392.679,447.525,388.088,452.116,382.426,452.116z"/>
<path style="fill:#57565C;" d="M382.426,420.846H255.779v31.269h126.647c5.662,0,10.253-4.59,10.253-10.252v-10.765
	C392.679,425.436,388.088,420.846,382.426,420.846z"/>
<g>
</g>
<g>
</g>
<g>
</g>
<g>
</g>
<g>
</g>
<g>
</g>
<g>
</g>
<g>
</g>
<g>
</g>
<g>
</g>
<g>
</g>
<g>
</g>
<g>
</g>
<g>
</g>
<g>
</g>
</svg>
