<?xml version="1.0" encoding="iso-8859-1"?>
<!-- Generator: Adobe Illustrator 19.0.0, SVG Export Plug-In . SVG Version: 6.00 Build 0)  -->
<svg version="1.1" id="Layer_1" xmlns="http://www.w3.org/2000/svg" xmlns:xlink="http://www.w3.org/1999/xlink" x="0px" y="0px"
	 viewBox="0 0 496.2 496.2" style="enable-background:new 0 0 496.2 496.2;" xml:space="preserve">
<path style="fill:#FABC3D;" d="M496.2,248.1C496.2,111.1,385.1,0,248.1,0S0,111.1,0,248.1s111.1,248.1,248.1,248.1
	S496.2,385.1,496.2,248.1z"/>
<path style="fill:#191919;" d="M137.8,291.4c0-23.6-1.4-45.1-13.5-50.7c-2.3-1.1-12.2,0-14.7,0c-15.6,0-28.2,22.7-28.2,50.7
	s12.6,50.7,28.2,50.7c2.6,0,12.3,1.2,14.7,0C136.2,336.1,137.8,314.6,137.8,291.4z"/>
<ellipse style="fill:#F9F7F7;" cx="124.3" cy="291.4" rx="28.2" ry="50.7"/>
<path style="fill:#EA4949;" d="M426.5,262.3V157.1c0,0,0.6-25.6-36.5-23.5c-33.9,2-48.9,4.6-48.9,4.6s-20.2,5.2-20.2,15v43
	l-138,18.9v119.2L426.5,262.3z"/>
<polygon style="fill:#191919;" points="66.2,299.1 199.1,318.7 207,288.1 67.5,278.9 "/>
<path style="fill:#282828;" d="M69.1,279.2l38.2,5l20-0.2c0,0-1.3-54.7,28.7-46.9C155.9,237,119.7,234,69.1,279.2z"/>
<path style="fill:#3F3F3F;" d="M67.5,278.9l39.7,5.2c0,0,18.7-54.9,48.6-47.1C155.9,237,91.7,218.8,67.5,278.9z"/>
<path style="fill:#383838;" d="M123.6,217.7v93.2l63.2,7.2V215.8C186.8,215.8,154.6,189.7,123.6,217.7z"/>
<g>
	<path style="fill:#191919;" d="M129,224v85.1l52.3,5.9v-90.5c0,0-8.9-7.5-28.9-8.4C132.5,215.3,129,224,129,224z"/>
	<polygon style="fill:#191919;" points="287.5,321.7 266.7,331.7 219.8,277 251,257 288.8,288.7 	"/>
</g>
<path style="fill:#282828;" d="M236.3,304.7c0.8,0,6.6,0,8.2,0c6.7,0,12.1,8,12.1,17.9s-5.4,17.9-12.1,17.9c-2.3,0-7.4,0-8.2,0
	c-6.7,0-12.1-8-12.1-17.9C224.2,312.7,229.6,304.7,236.3,304.7z"/>
<path style="fill:#191919;" d="M255.8,322.6c0-25.1-1.5-48-14.4-54c-2.4-1.1-13,0-15.6,0c-16.6,0-30,24.2-30,54s13.4,54,30,54
	c2.8,0,13.1,1.3,15.6,0C254.1,370.2,255.8,347.4,255.8,322.6z"/>
<path style="fill:#F9F7F7;" d="M271.5,322.6c0-29.8-13.4-54-30-54s-30,24.2-30,54s13.4,54,30,54C258,376.6,271.5,352.4,271.5,322.6z
	"/>
<path style="fill:#EA4949;" d="M261,322.6c0-20.2-9.5-36.6-21.2-36.6s-21.2,16.4-21.2,36.6s9.5,36.6,21.2,36.6S261,342.8,261,322.6z
	"/>
<path style="fill:#282828;" d="M236.3,304.7c0.8,0,6.6,0,8.2,0c6.7,0,12.1,8,12.1,17.9s-5.4,17.9-12.1,17.9c-2.3,0-7.4,0-8.2,0
	c-6.7,0-12.1-8-12.1-17.9C224.2,312.7,229.6,304.7,236.3,304.7z"/>
<ellipse style="fill:#A5A5A5;" cx="246.8" cy="322.6" rx="8.3" ry="14.4"/>
<path style="fill:#3F3F3F;" d="M209.6,194.3c0,0,18.9-1,52.8,0.7c33.8,1.7,63.2,6.5,63.2,6.5l0.7-48.2c0,0-24.8-11.7-56-11.7
	c-31.3,0-58.6,11.7-58.6,11.7L209.6,194.3z"/>
<path style="fill:#232323;" d="M211.5,147.1c11.6-4.1,136.3-23.7,214.4-0.2v6.1c0,0-25.5-3.7-47.7-3.7c-27.8,0-52.1,3.9-52.1,3.9
	s-24.8-7.8-53.4-7.8c-28.7,0-61.2,7.8-61.2,7.8L211.5,147.1L211.5,147.1z"/>
<path style="fill:#333333;" d="M231.7,134.8c11.6-4.1,97.1-29.3,175.2-5.9l0,0c13.7,3.5,17.8,12.6,19,18c0,0-25.5-3.7-47.7-3.7
	c-27.8,0-52.1,3.9-52.1,3.9s-24.8-7.8-53.4-7.8c-28.7,0-61.2,7.8-61.2,7.8S217,140,231.7,134.8z"/>
<path style="fill:#A5A5A5;" d="M196.1,317.6L66.2,299.1v-6.5l-11.7,9.1v11.7l142.4,22.8c0,0-0.4-3.3-0.9-9.6
	C195.7,320.9,196.1,317.6,196.1,317.6z"/>
<path style="fill:#191919;" d="M424.4,262.3c0-13.9-0.8-26.5-7.9-29.8c-1.3-0.6-7.2,0-8.6,0c-9.1,0-16.6,13.4-16.6,29.8
	c0,16.5,7.4,29.8,16.6,29.8c1.5,0,7.2,0.7,8.6,0C423.4,288.7,424.4,276,424.4,262.3z"/>
<path style="fill:#F9F7F7;" d="M433,262.3c0-16.5-7.4-29.8-16.6-29.8s-16.6,13.4-16.6,29.8c0,16.5,7.4,29.8,16.6,29.8
	C425.6,292.2,433,278.8,433,262.3z"/>
<ellipse style="fill:#EA4949;" cx="415.5" cy="262.3" rx="11.7" ry="20.2"/>
<path style="fill:#282828;" d="M413.6,252.5c0.4,0,3.7,0,4.6,0c3.7,0,6.7,4.4,6.7,9.9s-3,9.9-6.7,9.9c-1.3,0-4.1,0-4.6,0
	c-3.7,0-6.7-4.4-6.7-9.9S409.9,252.5,413.6,252.5z"/>
<ellipse style="fill:#A5A5A5;" cx="419.4" cy="262.3" rx="4.6" ry="7.9"/>
<path style="fill:#353535;" d="M285.8,321.5l57.1-24.8l-33.7-5.4c0,0-48.2-59.9-69.1-45.6c-20.8,14.3-31.3,33.9-31.3,46.9
	c0,0,18.2-31.3,41.7-27.4C274,269.2,284.5,294.1,285.8,321.5z"/>
<path style="fill:#3F3F3F;" d="M161.1,289.1l47.8,3.5c0,0,18.2-54.7,48.2-46.9C257.1,245.7,204.1,216.2,161.1,289.1z"/>
<path style="fill:#191919;" d="M433,262.3l8.7-1c0-23.5-10.6-37.1-20.4-37.3c0,0-29.5,0-31.7,44.3l12.6,2.2c0,0,0.7-0.9,0.7-2.1
	c0.2-7.2,1.2-31.3,17.1-31.3C422.6,237,433.1,237.3,433,262.3z"/>
<path style="fill:#262626;" d="M439.7,261.6l2-0.2c0-23.5-10.6-37.1-20.4-37.3l-0.4,6.1C429.2,231.1,439.7,244,439.7,261.6z"/>
<path style="fill:#353535;" d="M421.3,224c0,0-29.5,0-31.7,44.3l12.6,0.2c0,0-2.8-33,18.7-38.4L421.3,224z"/>
<polygon style="fill:#565656;" points="402.2,268.5 389.6,266.3 309.2,291.3 340.9,296.5 "/>
<path style="fill:#EFEFEF;" d="M218,158.3c0.7-0.7,1.8-1.1,2.8-1.1c0,0,24.6-4,48.7-3.4c24.1,0.7,45.1,5.4,45.1,5.4
	c2,0.1,3.7,1.8,3.7,3.8v39c0,1-36.4-10.4-60.5-11.1c-24.1-0.7-40.9,7.9-40.9,5.9V161C216.8,160,217.3,159,218,158.3z"/>
<path style="fill:#BECCCA;" d="M220.5,160.6c0.7-0.7,1.7-1,2.6-1c0,0,23.3-3.8,46.2-3.2s42.8,5.1,42.8,5.1c1.9,0.1,3.5,1.7,3.5,3.6
	v37c0,1-34.5-9.9-57.4-10.5s-38.8,7.5-38.8,5.6v-34C219.4,162.2,219.8,161.3,220.5,160.6z"/>
<path style="fill:#232323;" d="M325.5,201.4c0,0-64.5-22.1-116-7.2c0,0-45.6-0.7-59.9,4.6c-14.3,5.2-26.1,18.9-26.1,18.9
	s21.5-24.1,61.9-2C202.9,225.3,325.5,201.4,325.5,201.4z"/>
<polygon style="fill:#2B2B2B;" points="402.2,270.5 402.2,268.5 285.8,320.4 285.6,322.6 "/>
<ellipse style="fill:#DDD9D9;" cx="188.2" cy="238.1" rx="16.1" ry="21.8"/>
<path style="fill:#EDEDED;" d="M199.1,239.1c0-9.7-5.8-17.6-13-17.6s-13,7.9-13,17.6s5.8,17.6,13,17.6
	C193.3,256.6,199.1,248.8,199.1,239.1z"/>
<ellipse style="fill:#DDD9D9;" cx="114.6" cy="233.2" rx="16.1" ry="21.8"/>
<ellipse style="fill:#EDEDED;" cx="112.5" cy="234.2" rx="13" ry="17.6"/>
<g>
	<path style="fill:#BECCCA;" d="M395.2,157.2v39l-30.8,2.1v-41.6C374,156.7,385.2,157,395.2,157.2z"/>
	<path style="fill:#BECCCA;" d="M346.1,157.1c3.3-0.3,8.6-0.4,14.8-0.4v41.9l-28.7,2l-0.5-28.2C331.7,172.4,330.5,158.4,346.1,157.1
		z"/>
	<path style="fill:#BECCCA;" d="M412.2,157.7c8.7,0.3,8.7,8.1,8.7,8.1v28.7l-22.2,1.5v-38.7C403.8,157.4,408.5,157.6,412.2,157.7z"
		/>
</g>
<g>
	
		<rect x="332.896" y="206.455" transform="matrix(0.9953 -0.0966 0.0966 0.9953 -18.3721 37.4911)" style="fill:#B72C2C;" width="89.898" height="3.9"/>
	
		<rect x="332.892" y="215.963" transform="matrix(0.9953 -0.0966 0.0966 0.9953 -19.2873 37.5274)" style="fill:#B72C2C;" width="89.898" height="3.9"/>
</g>
<path style="fill:#F4EDED;" d="M131.4,291.3l38.8,4c1.1,0.1,2,1.1,2,2.1l0.7,18.1c0,1.1-0.8,1.9-1.9,1.7l-38.8-4
	c-1.1-0.1-2-1.1-2-2.1l-0.7-18.1C129.5,292,130.3,291.2,131.4,291.3z"/>
<g>
</g>
<g>
</g>
<g>
</g>
<g>
</g>
<g>
</g>
<g>
</g>
<g>
</g>
<g>
</g>
<g>
</g>
<g>
</g>
<g>
</g>
<g>
</g>
<g>
</g>
<g>
</g>
<g>
</g>
</svg>
