<?xml version="1.0" encoding="iso-8859-1"?>
<!-- Generator: Adobe Illustrator 19.0.0, SVG Export Plug-In . SVG Version: 6.00 Build 0)  -->
<svg version="1.1" id="Layer_1" xmlns="http://www.w3.org/2000/svg" xmlns:xlink="http://www.w3.org/1999/xlink" x="0px" y="0px"
	 viewBox="0 0 496.162 496.162" style="enable-background:new 0 0 496.162 496.162;" xml:space="preserve">
<path style="fill:#48A1AF;" d="M248.077,0C111.072,0,0.002,111.062,0.002,248.083c0,137.005,111.07,248.079,248.075,248.079
	c137.013,0,248.083-111.074,248.083-248.079C496.16,111.062,385.09,0,248.077,0z"/>
<path style="fill:#E84849;" d="M382.106,195.183c0-12.97-10.512-23.478-23.478-23.478h-56.739
	c-12.966,0-25.435,10.508-25.435,23.478v124.238l82.174,0.359c12.966,0,40.108-10.509,40.108-23.478L382.106,195.183z"/>
<path style="fill:#9DDAEC;" d="M367.245,198.117c-0.791-8.804-3.447-12.763-13.509-12.763h-45.978
	c-10.062,0-13.868,2.698-13.868,12.763v39.459l78.433,0.275L367.245,198.117z"/>
<path style="fill:#E8BB00;" d="M63.643,194.722l188.667-19.333C164.31,87.388,63.643,194.722,63.643,194.722z"/>
<path style="fill:#CECBCB;" d="M310.013,162.305l-11.667-11.167c-0.342-0.328-0.818-0.475-1.288-0.396L51.241,192.409
	c-0.419,0.071-0.788,0.316-1.016,0.675c-0.228,0.359-0.293,0.796-0.179,1.206c0,0,6.309,22.709,12.649,45.419
	c3.17,11.355,6.349,22.711,8.75,31.228c1.201,4.261,2.208,7.812,2.922,10.297c1.434,4.989,1.434,4.989,2.608,4.989h189
	c0.829,0,1.5-0.671,1.5-1.5V171.664l41.741-6.795c0.561-0.091,1.022-0.493,1.191-1.036
	C310.577,163.289,310.424,162.698,310.013,162.305z"/>
<path style="fill:#E84849;" d="M398.954,238.447h-82.609c-9.603,0-17.391,7.788-17.391,17.387v46.559
	c0,9.6,7.788,17.387,17.391,17.387h82.609c9.603,0,17.391-7.788,17.391-17.387v-46.559
	C416.345,246.235,408.557,238.447,398.954,238.447z"/>
<path style="fill:#CECBCB;" d="M422.822,295.721H81.173c-5.067,0-9.175,4.112-9.175,9.179v11.579c0,5.067,4.108,9.171,9.175,9.171
	h341.649c5.067,0,9.175-4.104,9.175-9.171V304.9C431.997,299.833,427.889,295.721,422.822,295.721z"/>
<path style="fill:#E84849;" d="M379.821,293.849H81.173c-5.067,0-9.175,4.104-9.175,9.171v13.458c0,5.067,4.108,9.171,9.175,9.171
	h298.648c5.067,0,9.175-4.104,9.175-9.171V303.02C388.996,297.953,384.888,293.849,379.821,293.849z"/>
<path style="fill:#202121;" d="M360.625,294.641c-24.075,0-43.604,19.517-43.604,43.6c0,24.075,19.529,43.601,43.604,43.601
	s43.6-19.525,43.6-43.601C404.226,314.158,384.701,294.641,360.625,294.641z"/>
<path style="fill:#5E5F5E;" d="M360.625,312.297c-14.33,0-25.944,11.618-25.944,25.943c0,14.317,11.614,25.936,25.944,25.936
	c14.331,0,25.939-11.618,25.939-25.936C386.565,323.915,374.956,312.297,360.625,312.297z"/>
<path style="fill:#A19F9F;" d="M360.63,328.535c-5.359,0-9.702,4.342-9.702,9.698c0,5.354,4.342,9.697,9.702,9.697
	c5.355,0,9.693-4.343,9.693-9.697C370.323,332.877,365.985,328.535,360.63,328.535z"/>
<path style="fill:#202121;" d="M145.576,294.641c-24.075,0-43.604,19.517-43.604,43.6c0,24.075,19.529,43.601,43.604,43.601
	s43.6-19.525,43.6-43.601C189.175,314.158,169.651,294.641,145.576,294.641z"/>
<path style="fill:#5E5F5E;" d="M145.58,312.297c-14.326,0-25.944,11.609-25.944,25.943c0,14.317,11.618,25.926,25.944,25.926
	c14.325,0,25.935-11.609,25.935-25.926C171.515,323.907,159.905,312.297,145.58,312.297z"/>
<path style="fill:#A19F9F;" d="M145.58,328.535c-5.359,0-9.702,4.342-9.702,9.698c0,5.354,4.343,9.697,9.702,9.697
	c5.354,0,9.693-4.343,9.693-9.697C155.273,332.877,150.935,328.535,145.58,328.535z"/>
<g>
	<path style="fill:#E13B3B;" d="M207.654,326.137c-7.874-28.462-33.039-48.319-61.274-48.319c-28.309,0-53.531,19.96-61.335,48.54
		c-0.113,0.415-0.026,0.859,0.234,1.201c0.261,0.342,0.667,0.542,1.097,0.542l23.981,0.008l0,0c0.492,0,0.946-0.262,1.193-0.687
		c6.505-11.201,21.153-19.331,34.829-19.331c13.674,0,28.322,8.127,34.829,19.323c0.247,0.425,0.702,0.687,1.193,0.687h23.981
		c0.006,0,0.012-0.001,0.02,0c0.762,0,1.38-0.618,1.38-1.38C207.784,326.512,207.737,326.314,207.654,326.137z"/>
	<path style="fill:#E13B3B;" d="M420.988,326.137c-7.874-28.462-33.039-48.319-61.274-48.319c-28.309,0-53.531,19.96-61.335,48.54
		c-0.113,0.415-0.026,0.859,0.234,1.201c0.261,0.342,0.667,0.542,1.097,0.542l23.981,0.008l0,0c0.492,0,0.946-0.262,1.193-0.687
		c6.505-11.201,21.153-19.331,34.829-19.331c13.674,0,28.322,8.127,34.829,19.323c0.247,0.425,0.702,0.687,1.193,0.687h23.981
		c0.006,0,0.012-0.001,0.02,0c0.762,0,1.38-0.618,1.38-1.38C421.117,326.512,421.071,326.314,420.988,326.137z"/>
</g>
<g>
</g>
<g>
</g>
<g>
</g>
<g>
</g>
<g>
</g>
<g>
</g>
<g>
</g>
<g>
</g>
<g>
</g>
<g>
</g>
<g>
</g>
<g>
</g>
<g>
</g>
<g>
</g>
<g>
</g>
</svg>
