
        <svg xmlns="http://www.w3.org/2000/svg" xmlns:xlink="http://www.w3.org/1999/xlink" version="1.1" width="3144.06755847785" 
        height="1466.9278954344636" viewBox="0 -21.610133771677496 3144.06755847785 1466.9278954344636">
			
			<g transform="scale(7.203377923892498) translate(10, 10)">
				<defs id="SvgjsDefs1169"></defs><g id="SvgjsG1170" featureKey="ZxbabI-0" transform="matrix(1.3806878328323364,0,0,1.3806878328323364,136.09656084656083,-39.782386739417994)" fill="#005d6c"><ellipse xmlns="http://www.w3.org/2000/svg" cx="55.125" cy="64.81" rx="5.077" ry="8.551"></ellipse><path xmlns="http://www.w3.org/2000/svg" d="M16.012,73.361c1.628,0,3.073-1.295,4.002-3.303c-3.488-0.188-6.226-0.507-8.373-0.916  C12.524,71.664,14.149,73.361,16.012,73.361z"></path><ellipse xmlns="http://www.w3.org/2000/svg" cx="87.643" cy="56.542" rx="4.834" ry="8.144"></ellipse><path xmlns="http://www.w3.org/2000/svg" d="M90.496,36.743c-6.188-3.194-8.081-10.104-29.824-10.104c-11.993,0-16.456,1.356-18.6,1.998  C32.275,31.566,22.6,39.76,22.184,40.181c-1.933,1.96-14.119,5.932-16.697,12.232c2.154,0.646,4.346,1.752,5.916,3.64  c0.96,1.154,0.75,2.508-0.203,2.385L5,57.636v6.456c0,8.02,42.711,4.352,42.711,4.352l1.244-0.334  c-0.229-1.029-0.357-2.135-0.357-3.299c0-5.607,2.867-10.002,6.527-10.002c3.637,0,6.486,4.336,6.523,9.891l19.971-5.366  c-0.169-0.88-0.264-1.813-0.264-2.79c0-5.38,2.762-9.594,6.287-9.594c3.282,0,5.899,3.658,6.244,8.505  C94.622,54.445,95,52.602,95,49.667v-3.142C95,42.93,94.102,38.602,90.496,36.743z M46.476,54.991L46.476,54.991  c-0.001,0.963-0.776,1.844-1.731,1.967l-11.442,1.479c-0.953,0.121-1.163-1.23-0.203-2.386c3.146-3.782,8.787-4.433,11.631-4.506  c0.964-0.024,1.745,0.808,1.745,1.771V54.991z M53.997,42.656H24.695c0,0,9.361-11.524,21.729-11.524h17.484  C58.529,34.517,53.997,42.656,53.997,42.656z M59.458,44.99l2.595-1.887c0.219,0.04,0.447,0.042,0.684-0.006l2.906-0.598  c1.178-0.242,2.021-1.166,2.021-2.34c0-1.94-1.37-2.61-5.299-1.317c-1.143,0.376-2.018,1.501-1.943,2.501  c0.01,0.14,0.041,0.278,0.087,0.414l-2.124,1.108c1.385-3.25,4.588-8.606,11.327-11.249c0.095-0.037,0.188-0.064,0.282-0.098  c1.927,3.113,2.736,7.473,3.035,9.616L59.458,44.99z M75.38,40.466c-0.331-2.262-1.132-6.256-2.922-9.514  c7.396-0.777,13.935,6.385,13.935,6.385L75.38,40.466z"></path></g><g id="SvgjsG1171" featureKey="91VAEh-0" transform="matrix(2.3286638259887695,0,0,2.3286638259887695,33.9988044805988,94.10258076253346)" fill="#00043c"><path d="M5.5 17.68 c0 0.32 -0.06 0.62 -0.18 0.9 s-0.28666 0.52666 -0.5 0.74 s-0.46 0.38 -0.74 0.5 s-0.58 0.18 -0.9 0.18 s-0.62 -0.06 -0.9 -0.18 s-0.52666 -0.28666 -0.74 -0.5 s-0.38 -0.46 -0.5 -0.74 s-0.18 -0.58 -0.18 -0.9 c0 -0.16 0.05666 -0.29666 0.17 -0.41 s0.25 -0.17 0.41 -0.17 c0.17334 0 0.31668 0.05666 0.43002 0.17 s0.17 0.25 0.17 0.41 c0 0.32 0.11334 0.59 0.34 0.81 s0.49332 0.33 0.79998 0.33 c0.32 0 0.59334 -0.11 0.82 -0.33 s0.34 -0.49 0.34 -0.81 l0 -12.28 c0 -0.16 0.05666 -0.29666 0.17 -0.41 s0.25 -0.17 0.41 -0.17 s0.29666 0.05666 0.41 0.17 s0.17 0.25 0.17 0.41 l0 12.28 z M21.3 19.18 c0.06666 0.14666 0.066582 0.29668 -0.000078126 0.45002 s-0.17332 0.26334 -0.31998 0.33 c-0.04 0.01334 -0.07666 0.02334 -0.11 0.03 s-0.07 0.01 -0.11 0.01 c-0.26666 0 -0.44666 -0.12 -0.54 -0.36 l-1.66 -3.9 l-7.64 0 l-1.68 3.9 c-0.06666 0.14666 -0.17332 0.25332 -0.31998 0.31998 s-0.29332 0.06666 -0.43998 0 s-0.25332 -0.17666 -0.31998 -0.33 s-0.06666 -0.30334 0 -0.45 l1.82 -4.26 l4.22 -9.88 c0.09334 -0.24 0.27334 -0.36 0.54 -0.36 c0.25334 0 0.43334 0.12 0.54 0.36 l4.2 9.88 z M18.060000000000002 14.559999999999999 l-3.32 -7.8 l-3.32 7.8 l6.64 0 z M33.96 19.42 c0 0.16 -0.05666 0.29666 -0.17 0.41 s-0.25 0.17 -0.41 0.17 c-0.22666 0 -0.39332 -0.09334 -0.49998 -0.28 l-7.78 -12.3 l0 12 c0 0.16 -0.05666 0.29666 -0.17 0.41 s-0.25 0.17 -0.41 0.17 s-0.29666 -0.05666 -0.41 -0.17 s-0.17 -0.25 -0.17 -0.41 l0 -14.02 c0 -0.16 0.05666 -0.29666 0.17 -0.41 s0.25 -0.17 0.41 -0.17 c0.22666 0 0.39332 0.08666 0.49998 0.26 l7.78 12.32 l0 -12 c0 -0.16 0.05666 -0.29666 0.17 -0.41 s0.25 -0.17 0.41 -0.17 s0.29666 0.05666 0.41 0.17 s0.17 0.25 0.17 0.41 l0 14.02 z M45.760000000000005 5.4 c0 0.16 -0.05664 0.29666 -0.16998 0.41 s-0.25 0.17 -0.41 0.17 l-3.54 0 l0 13.44 c0 0.16 -0.05666 0.29666 -0.17 0.41 s-0.25 0.17 -0.41 0.17 c-0.17334 0 -0.31668 -0.05666 -0.43002 -0.17 s-0.17 -0.25 -0.17 -0.41 l0 -13.44 l-3.54 0 c-0.16 0 -0.29666 -0.05666 -0.41 -0.17 s-0.17 -0.25 -0.17 -0.41 s0.05666 -0.29666 0.17 -0.41 s0.25 -0.17 0.41 -0.17 l8.26 0 c0.16 0 0.29666 0.05666 0.41 0.17 s0.17 0.25 0.17 0.41 z M60 19.18 c0.06666 0.14666 0.066582 0.29668 -0.000078126 0.45002 s-0.17332 0.26334 -0.31998 0.33 c-0.04 0.01334 -0.07666 0.02334 -0.11 0.03 s-0.07 0.01 -0.11 0.01 c-0.26666 0 -0.44666 -0.12 -0.54 -0.36 l-1.66 -3.9 l-7.64 0 l-1.68 3.9 c-0.06666 0.14666 -0.17332 0.25332 -0.31998 0.31998 s-0.29332 0.06666 -0.43998 0 s-0.25332 -0.17666 -0.31998 -0.33 s-0.06666 -0.30334 0 -0.45 l1.82 -4.26 l4.22 -9.88 c0.09334 -0.24 0.27334 -0.36 0.54 -0.36 c0.25334 0 0.43334 0.12 0.54 0.36 l4.2 9.88 z M56.76 14.559999999999999 l-3.32 -7.8 l-3.32 7.8 l6.64 0 z M82.52000000000001 17.34 c0 0.17334 -0.060078 0.30658 -0.18008 0.39992 c-0.72 0.73334 -1.5467 1.2933 -2.48 1.68 s-1.92 0.58 -2.96 0.58 c-1.0533 0 -2.0466 -0.2 -2.98 -0.6 s-1.7467 -0.95 -2.44 -1.65 s-1.2433 -1.5133 -1.65 -2.44 s-0.61 -1.9233 -0.61 -2.99 c0 -1.0533 0.20334 -2.04 0.61 -2.96 s0.95666 -1.7133 1.65 -2.38 s1.5067 -1.1933 2.44 -1.58 s1.9267 -0.58 2.98 -0.58 c1.04 0 2.0266 0.19334 2.96 0.58 s1.76 0.94 2.48 1.66 c0.12 0.12 0.18 0.26 0.18 0.42 s-0.06 0.3 -0.18 0.42 c-0.10666 0.10666 -0.24332 0.16 -0.40998 0.16 s-0.30332 -0.05334 -0.40998 -0.16 c-0.62666 -0.62666 -1.3333 -1.1033 -2.12 -1.43 s-1.62 -0.49 -2.5 -0.49 c-0.89334 0 -1.7333 0.16 -2.52 0.48 s-1.4767 0.76666 -2.07 1.34 s-1.06 1.2467 -1.4 2.02 s-0.51 1.6067 -0.51 2.5 s0.17 1.7333 0.51 2.52 s0.80666 1.4767 1.4 2.07 s1.2833 1.06 2.07 1.4 s1.6267 0.51 2.52 0.51 c0.84 0 1.64 -0.14666 2.4 -0.44 s1.44 -0.72668 2.04 -1.3 l0 -4.18 l-4.34 0 c-0.17334 0 -0.31668 -0.05666 -0.43002 -0.17 s-0.17 -0.25 -0.17 -0.41 s0.05666 -0.3 0.17 -0.42 s0.25668 -0.18 0.43002 -0.18 l4.92 0 c0.17334 0 0.31668 0.06 0.43002 0.18 s0.17 0.26 0.17 0.42 l0 5.02 z M98.30000000000001 19.18 c0.06666 0.14666 0.066582 0.29668 -0.000078126 0.45002 s-0.17332 0.26334 -0.31998 0.33 c-0.04 0.01334 -0.07666 0.02334 -0.11 0.03 s-0.07 0.01 -0.11 0.01 c-0.26666 0 -0.44666 -0.12 -0.54 -0.36 l-1.66 -3.9 l-7.64 0 l-1.68 3.9 c-0.06666 0.14666 -0.17332 0.25332 -0.31998 0.31998 s-0.29332 0.06666 -0.43998 0 s-0.25332 -0.17666 -0.31998 -0.33 s-0.06666 -0.30334 0 -0.45 l1.82 -4.26 l4.22 -9.88 c0.09334 -0.24 0.27334 -0.36 0.54 -0.36 c0.25334 0 0.43334 0.12 0.54 0.36 l4.2 9.88 z M95.06 14.559999999999999 l-3.32 -7.8 l-3.32 7.8 l6.64 0 z M109.2 8.94 c0 0.57334 -0.10998 1.11 -0.32998 1.61 s-0.51666 0.93666 -0.89 1.31 s-0.81 0.66668 -1.31 0.88002 s-1.0367 0.32 -1.61 0.32 l-0.24 0 l3.62 6.06 c0.05334 0.06666 0.08 0.16666 0.08 0.3 c0 0.16 -0.05666 0.29666 -0.17 0.41 s-0.25 0.17 -0.41 0.17 c-0.21334 0 -0.38668 -0.1 -0.52002 -0.3 l-3.96 -6.64 l-1.34 0 l0 6.36 c0 0.16 -0.05666 0.29666 -0.17 0.41 s-0.25 0.17 -0.41 0.17 c-0.17334 0 -0.31668 -0.05666 -0.43002 -0.17 s-0.17 -0.25 -0.17 -0.41 l0 -14.02 c0 -0.16 0.05666 -0.29666 0.17 -0.41 s0.25668 -0.17 0.43002 -0.17 l3.52 0 c0.57334 0 1.11 0.10666 1.61 0.32 s0.93666 0.50668 1.31 0.88002 s0.67 0.81 0.89 1.31 s0.33 1.0367 0.33 1.61 z M108.02000000000001 8.94 c0 -0.4 -0.07666 -0.77998 -0.23 -1.14 s-0.36334 -0.67666 -0.63 -0.95 s-0.58 -0.48668 -0.94 -0.64002 s-0.74666 -0.23 -1.16 -0.23 l-2.94 0 l0 5.9 l2.94 0 c0.41334 0 0.8 -0.07666 1.16 -0.23 s0.67334 -0.36334 0.94 -0.63 s0.47666 -0.58 0.63 -0.94 s0.23 -0.74 0.23 -1.14 z M123.66 19.18 c0.06666 0.14666 0.066582 0.29668 -0.000078126 0.45002 s-0.17332 0.26334 -0.31998 0.33 c-0.04 0.01334 -0.07666 0.02334 -0.11 0.03 s-0.07 0.01 -0.11 0.01 c-0.26666 0 -0.44666 -0.12 -0.54 -0.36 l-1.66 -3.9 l-7.64 0 l-1.68 3.9 c-0.06666 0.14666 -0.17332 0.25332 -0.31998 0.31998 s-0.29332 0.06666 -0.43998 0 s-0.25332 -0.17666 -0.31998 -0.33 s-0.06666 -0.30334 0 -0.45 l1.82 -4.26 l4.22 -9.88 c0.09334 -0.24 0.27334 -0.36 0.54 -0.36 c0.25334 0 0.43334 0.12 0.54 0.36 l4.2 9.88 z M120.42 14.559999999999999 l-3.32 -7.8 l-3.32 7.8 l6.64 0 z M139.16 17.34 c0 0.17334 -0.060078 0.30658 -0.18008 0.39992 c-0.72 0.73334 -1.5467 1.2933 -2.48 1.68 s-1.92 0.58 -2.96 0.58 c-1.0533 0 -2.0466 -0.2 -2.98 -0.6 s-1.7467 -0.95 -2.44 -1.65 s-1.2433 -1.5133 -1.65 -2.44 s-0.61 -1.9233 -0.61 -2.99 c0 -1.0533 0.20334 -2.04 0.61 -2.96 s0.95666 -1.7133 1.65 -2.38 s1.5067 -1.1933 2.44 -1.58 s1.9267 -0.58 2.98 -0.58 c1.04 0 2.0266 0.19334 2.96 0.58 s1.76 0.94 2.48 1.66 c0.12 0.12 0.18 0.26 0.18 0.42 s-0.06 0.3 -0.18 0.42 c-0.10666 0.10666 -0.24332 0.16 -0.40998 0.16 s-0.30332 -0.05334 -0.40998 -0.16 c-0.62666 -0.62666 -1.3333 -1.1033 -2.12 -1.43 s-1.62 -0.49 -2.5 -0.49 c-0.89334 0 -1.7333 0.16 -2.52 0.48 s-1.4767 0.76666 -2.07 1.34 s-1.06 1.2467 -1.4 2.02 s-0.51 1.6067 -0.51 2.5 s0.17 1.7333 0.51 2.52 s0.80666 1.4767 1.4 2.07 s1.2833 1.06 2.07 1.4 s1.6267 0.51 2.52 0.51 c0.84 0 1.64 -0.14666 2.4 -0.44 s1.44 -0.72668 2.04 -1.3 l0 -4.18 l-4.34 0 c-0.17334 0 -0.31668 -0.05666 -0.43002 -0.17 s-0.17 -0.25 -0.17 -0.41 s0.05666 -0.3 0.17 -0.42 s0.25668 -0.18 0.43002 -0.18 l4.92 0 c0.17334 0 0.31668 0.06 0.43002 0.18 s0.17 0.26 0.17 0.42 l0 5.02 z M151.16 19.42 c0 0.16 -0.05666 0.29664 -0.17 0.40998 s-0.25668 0.17 -0.43002 0.17 l-6.88 0 c-0.17334 0 -0.31668 -0.05666 -0.43002 -0.17 s-0.17 -0.25 -0.17 -0.41 l0 -0.04 l0 -0.04 l0 -13.94 c0 -0.16 0.05666 -0.29666 0.17 -0.41 s0.25668 -0.17 0.43002 -0.17 l6.88 0 c0.17334 0 0.31668 0.05666 0.43002 0.17 s0.17 0.25 0.17 0.41 s-0.05666 0.29666 -0.17 0.41 s-0.25668 0.17 -0.43002 0.17 l-6.3 0 l0 5.7 l5.36 0 c0.16 0 0.29666 0.05666 0.41 0.17 s0.17 0.25 0.17 0.41 s-0.05666 0.29666 -0.17 0.41 s-0.25 0.17 -0.41 0.17 l-5.36 0 l0 5.98 l6.3 0 c0.17334 0 0.31668 0.05666 0.43002 0.17 s0.17 0.25668 0.17 0.43002 z"></path></g><g id="SvgjsG1172" featureKey="iMTlXc-0" transform="matrix(0.9635800719261169,0,0,0.9635800719261169,3.2459831417624523,161.3728429118774)" fill="#005d6c"><path d="M6.9 5.84 c1.3867 0 2.4734 0.34666 3.26 1.04 s1.18 1.6667 1.18 2.92 c0 0.94666 -0.32334 1.7733 -0.97 2.48 s-1.4767 1.1267 -2.49 1.26 l-0.02 0 l4.02 6.46 l-2.4 0 l-3.6 -6.24 l-2.14 0 l0 6.24 l-1.92 0 l0 -14.16 l5.08 0 z M6.34 12.08 c1 0 1.7433 -0.18336 2.23 -0.55002 s0.73 -0.94332 0.73 -1.73 c0 -1.52 -0.98666 -2.28 -2.96 -2.28 l-2.6 0 l0 4.56 l2.6 0 z M36.812000000000005 5.84 l0 1.8 l-7.22 0 l0 4.22 l6.72 0 l0 1.8 l-6.72 0 l0 4.54 l7.58 0 l0 1.8 l-9.5 0 l0 -14.16 l9.14 0 z M55.44400000000001 5.84 l0 12.36 l6.5 0 l0 1.8 l-8.42 0 l0 -14.16 l1.92 0 z M83.71600000000001 5.84 l6.06 14.16 l-2.24 0 l-1.42 -3.5 l-6.74 0 l-1.4 3.5 l-2.24 0 l6.24 -14.16 l1.74 0 z M80.05600000000001 14.82 l5.36 0 l-2.64 -6.5 l-0.04 0 z M106.22800000000001 5.84 l3.68 5.44 l3.64 -5.44 l2.4 0 l-4.72 6.7 l5.2 7.46 l-2.52 0 l-4.06 -6.14 l-4.08 6.14 l-2.38 0 l5.14 -7.44 l-4.76 -6.72 l2.46 0 z M158.812 8.44 l-3.42 11.56 l-2.02 0 l-4.14 -14.16 l2 0 l3.12 11.32 l0.04 0 l3.34 -11.32 l2.2 0 l3.34 11.32 l0.04 0 l3.12 -11.32 l2 0 l-4.12 14.16 l-2.02 0 l-3.44 -11.56 l-0.04 0 z M193.044 5.84 l0 1.8 l-7.22 0 l0 4.22 l6.72 0 l0 1.8 l-6.72 0 l0 4.54 l7.58 0 l0 1.8 l-9.5 0 l0 -14.16 l9.14 0 z M211.496 5.84 l0 4.92 l-1.56 0 l0 -4.92 l1.56 0 z M230.86800000000002 5.84 l0 12.36 l6.5 0 l0 1.8 l-8.42 0 l0 -14.16 l1.92 0 z M254.88000000000002 5.84 l0 12.36 l6.5 0 l0 1.8 l-8.42 0 l0 -14.16 l1.92 0 z M301.244 5.84 c1.3867 0 2.4734 0.34666 3.26 1.04 s1.18 1.6667 1.18 2.92 c0 0.94666 -0.32334 1.7733 -0.97 2.48 s-1.4767 1.1267 -2.49 1.26 l-0.02 0 l4.02 6.46 l-2.4 0 l-3.6 -6.24 l-2.14 0 l0 6.24 l-1.92 0 l0 -14.16 l5.08 0 z M300.684 12.08 c1 0 1.7433 -0.18336 2.23 -0.55002 s0.73 -0.94332 0.73 -1.73 c0 -1.52 -0.98666 -2.28 -2.96 -2.28 l-2.6 0 l0 4.56 l2.6 0 z M331.156 5.84 l0 1.8 l-7.22 0 l0 4.22 l6.72 0 l0 1.8 l-6.72 0 l0 4.54 l7.58 0 l0 1.8 l-9.5 0 l0 -14.16 l9.14 0 z M352.948 5.84 c1.3733 0 2.4566 0.34 3.25 1.02 s1.19 1.66 1.19 2.94 c0 1.24 -0.39334 2.21 -1.18 2.91 s-1.8733 1.05 -3.26 1.05 l-3.16 0 l0 6.24 l-1.92 0 l0 -14.16 l5.08 0 z M352.388 12.08 c1 0 1.7433 -0.18336 2.23 -0.55002 s0.73 -0.94332 0.73 -1.73 c0 -1.52 -0.98666 -2.28 -2.96 -2.28 l-2.6 0 l0 4.56 l2.6 0 z M378.06 5.84 l6.06 14.16 l-2.24 0 l-1.42 -3.5 l-6.74 0 l-1.4 3.5 l-2.24 0 l6.24 -14.16 l1.74 0 z M374.4 14.82 l5.36 0 l-2.64 -6.5 l-0.04 0 z M401.512 5.84 l0 14.16 l-1.92 0 l0 -14.16 l1.92 0 z M423.864 5.84 c1.3867 0 2.4734 0.34666 3.26 1.04 s1.18 1.6667 1.18 2.92 c0 0.94666 -0.32334 1.7733 -0.97 2.48 s-1.4767 1.1267 -2.49 1.26 l-0.02 0 l4.02 6.46 l-2.4 0 l-3.6 -6.24 l-2.14 0 l0 6.24 l-1.92 0 l0 -14.16 l5.08 0 z M423.304 12.08 c1 0 1.7433 -0.18336 2.23 -0.55002 s0.73 -0.94332 0.73 -1.73 c0 -1.52 -0.98666 -2.28 -2.96 -2.28 l-2.6 0 l0 4.56 l2.6 0 z"></path></g>
			</g>
		</svg>
	